PathFileType	4	(X/Y/Z)	 s04c0202.trc
DataRate	CameraRate	NumFrames	NumMarkers	Units	OrigDataRate	OrigDataStartFrame	OrigNumFrames
200	200	6	50	mm	200	751	2000
Frame#	Time	racr			lacr			c7			jug			rlel			rdr			llel			ldr			s2			lic			ric			lasi			rasi			rpsi			lpsi			rgt			lgt			rth1			rth2			rth3			rth4			rlfc			rmfc			rsh1			rsh2			rsh3			rsh4			rlmal			rmmal			rcal			rtoe			rmt5			lth1			lth2			lth4			lth3			llfc			lmfc			lsh1			lsh2			lsh3			lsh4			llmal			lmmal			lcal			ltoe			lmt5			SBIKE			LBIKE			RBIKE			
		X1	Y1	Z1	X2	Y2	Z2	X3	Y3	Z3	X4	Y4	Z4	X5	Y5	Z5	X6	Y6	Z6	X7	Y7	Z7	X8	Y8	Z8	X9	Y9	Z9	X10	Y10	Z10	X11	Y11	Z11	X12	Y12	Z12	X13	Y13	Z13	X14	Y14	Z14	X15	Y15	Z15	X16	Y16	Z16	X17	Y17	Z17	X18	Y18	Z18	X19	Y19	Z19	X20	Y20	Z20	X21	Y21	Z21	X22	Y22	Z22	X23	Y23	Z23	X24	Y24	Z24	X25	Y25	Z25	X26	Y26	Z26	X27	Y27	Z27	X28	Y28	Z28	X29	Y29	Z29	X30	Y30	Z30	X31	Y31	Z31	X32	Y32	Z32	X33	Y33	Z33	X34	Y34	Z34	X35	Y35	Z35	X36	Y36	Z36	X37	Y37	Z37	X38	Y38	Z38	X39	Y39	Z39	X40	Y40	Z40	X41	Y41	Z41	X42	Y42	Z42	X43	Y43	Z43	X44	Y44	Z44	X45	Y45	Z45	X46	Y46	Z46	X47	Y47	Z47	X48	Y48	Z48	X49	Y49	Z49	X50	Y50	Z50	
751	3.7550	504.711680	1371.681690	-110.180843	513.087964	1368.710895	-375.726479	485.302993	1433.760960	-246.940710	462.244376	1279.009455	-251.965883	446.756237	1092.159350	44.585788	661.728290	936.521691	-86.598106	480.699874	1134.179061	-554.306877	671.366687	942.407216	-453.736205	-66.859698	1186.029652	-287.288989	98.359773	1203.144553	-432.301022	73.537603	1202.851013	-113.432238	136.232643	1154.978358	-383.466209	126.039905	1163.928753	-154.001605	-42.253529	1230.444693	-242.492954	-40.459202	1235.105983	-316.442225	35.213697	1139.699378	-100.860789	71.299000	1112.296604	-464.513747	152.841920	1020.841389	-84.377828	226.977127	973.776371	-95.710809	269.187241	900.092008	-101.700010	251.014820	999.464151	-109.898738	358.647753	784.136955	-124.530187	335.992923	756.735351	-234.797218	329.888665	660.636712	-92.914092	334.878788	570.303192	-105.405217	293.422553	494.814797	-108.401716	365.736932	567.418491	-129.345457	274.221866	343.016933	-108.860494	292.143463	350.549500	-195.018971	205.678545	311.238340	-141.727011	505.814732	288.355790	-151.129151	441.929182	265.845835	-92.199932	133.470311	1047.415929	-470.953207	212.484377	1012.068549	-471.512048	233.498447	1036.644492	-455.342472	265.528072	941.258105	-482.934464	358.196618	817.504932	-462.342559	382.044079	786.679046	-353.944387	288.818335	721.699713	-482.884608	241.283776	654.453914	-453.400910	161.902560	614.203734	-448.294250	261.601122	639.302271	-424.254029	51.031370	522.154049	-436.473013	48.824613	526.677740	-347.996937	-28.258961	549.551750	-391.901655	206.683951	356.049039	-405.269992	127.573006	372.915864	-464.666924	-140.472821	918.573633	-294.216721	-3.195464	85.857874	-484.593672	-14.954363	80.399011	-84.146170	
752	3.7600	505.480367	1372.418295	-110.927261	513.018794	1369.653012	-376.745397	485.582244	1434.680751	-247.566474	462.743173	1280.054891	-252.658722	448.019856	1092.524322	43.457355	663.472139	935.672179	-87.720298	481.250179	1134.492809	-554.299445	672.329044	942.944687	-453.406624	-66.296507	1186.681028	-286.435581	98.363284	1204.904427	-431.771393	74.450570	1202.918808	-112.763149	136.453036	1156.766841	-383.089374	126.879998	1163.757965	-153.538103	-44.475666	1231.829213	-239.841796	-40.362024	1236.014025	-315.308547	35.626990	1139.199652	-100.702025	72.267877	1114.928789	-464.519840	151.125744	1018.434452	-83.479757	224.285901	969.945479	-94.343972	264.977226	895.274975	-100.407236	248.493502	994.928307	-108.625678	352.500076	777.756382	-123.088543	329.631355	750.196011	-233.247899	324.627283	653.749666	-91.786452	330.382836	563.492513	-104.443176	289.433670	487.712518	-107.661765	361.082920	560.892838	-128.594801	271.073415	335.541777	-108.723411	289.178073	343.333490	-194.808191	202.809725	304.180517	-141.730842	502.806600	279.905845	-151.219005	438.848822	257.580274	-92.326225	134.881143	1051.011904	-471.285778	214.526360	1016.815078	-472.077691	235.149098	1041.639036	-455.876601	268.547462	946.937281	-483.956028	362.969194	824.646191	-463.958088	397.587069	796.300417	-352.117381	293.687234	729.000337	-484.252691	246.032712	661.986841	-454.573119	166.484362	622.045004	-449.075885	266.292909	646.918217	-425.261484	55.249226	530.501074	-436.717792	53.285272	535.369689	-348.245909	-23.923613	558.245991	-392.034562	210.131624	363.524997	-405.187369	131.083503	380.773679	-464.474353	-140.539003	918.987014	-293.573762	-3.183688	85.909888	-484.558954	-14.951327	80.427702	-84.141768	
753	3.7650	506.141339	1373.100235	-111.707179	512.991894	1370.482602	-377.602883	485.843677	1435.593194	-248.151423	463.134184	1280.937905	-253.384864	449.336495	1092.826329	42.225219	664.766954	935.446877	-88.468521	481.751083	1134.759860	-554.390962	673.325386	943.542255	-453.163018	-65.764207	1187.121946	-285.755115	98.280526	1206.618473	-431.241677	75.331817	1202.883320	-112.105753	136.739717	1158.646301	-382.917467	128.771701	1163.352454	-152.599746	-41.725839	1231.296608	-240.368782	-40.488404	1236.842267	-314.281201	35.971208	1138.732503	-100.557694	73.216089	1117.506715	-464.517138	149.307347	1016.109512	-82.686611	221.482369	966.154466	-92.935395	260.909969	890.608207	-98.922656	246.192035	990.347714	-107.112105	346.159550	771.355128	-121.673476	323.253418	743.834326	-231.899077	319.199186	646.940606	-90.782016	325.557290	556.866760	-103.769230	285.149032	480.744778	-107.168733	356.209341	554.496362	-127.979122	267.564873	328.370291	-108.823119	285.990798	336.349361	-194.843528	199.623131	297.674084	-141.873334	499.557747	271.319547	-151.384632	435.395485	249.487476	-92.495137	136.554017	1054.934745	-471.755237	216.452213	1021.688614	-472.667677	236.770557	1046.833855	-456.524608	271.593984	952.758678	-485.002554	367.846322	831.847976	-465.618634	393.159059	801.358334	-358.026828	298.861404	736.216400	-485.560790	251.033523	669.638633	-455.510647	171.404113	629.832873	-449.843488	271.247281	654.648428	-426.135771	59.857625	538.702229	-437.067919	58.182329	543.842744	-348.458567	-19.204970	566.849742	-392.289930	213.894718	371.076816	-405.560387	134.982899	388.463375	-464.319654	-140.524936	919.545661	-292.534699	-3.176070	85.932819	-484.568110	-14.939816	80.416118	-84.137534	
754	3.7700	506.758429	1373.723330	-112.523224	513.047409	1371.371121	-378.620327	486.077613	1436.458244	-248.746956	463.521080	1281.944050	-254.227573	450.621680	1093.136303	40.958426	666.015621	935.210959	-89.277729	482.171008	1134.973472	-554.537822	674.325362	944.074892	-453.021802	-65.312941	1187.421530	-284.997494	98.089469	1208.250624	-430.679854	76.176052	1202.870041	-110.920971	137.516568	1161.047129	-383.571013	129.554098	1163.221341	-152.535164	-41.001984	1231.468394	-239.439841	-40.161742	1237.342034	-313.307220	36.267837	1138.250184	-100.490226	74.084890	1120.030411	-464.503915	147.550091	1014.019588	-81.900472	218.631433	962.404152	-91.697396	256.480833	886.137004	-97.576315	244.025361	985.974631	-106.676763	339.687047	765.196313	-119.844264	317.010324	737.870589	-230.505843	313.371550	640.413758	-89.892150	320.454214	550.322655	-103.092206	280.559952	473.991122	-106.766338	351.116625	548.342073	-127.367965	263.787400	321.524231	-109.002841	282.728851	329.439423	-194.866137	196.083661	291.465595	-142.220733	495.914460	262.764441	-151.471830	431.483852	241.466751	-92.639930	138.057125	1058.773495	-472.161773	218.352188	1026.633780	-473.282913	238.316604	1052.041570	-457.138477	274.589217	958.633324	-486.079230	372.116121	839.013213	-466.861149	398.476546	809.130730	-359.321587	304.259347	743.693732	-486.814681	256.298359	677.206929	-456.432960	176.581307	637.649068	-450.579461	276.468523	662.464246	-426.923769	64.617068	546.765171	-437.087534	64.429175	552.042710	-348.905267	-14.128884	575.217912	-392.658781	218.188021	377.943370	-404.923849	139.444620	396.092080	-464.068941	-140.619836	919.886204	-291.885044	-3.164151	85.973986	-484.546545	-14.947583	80.455682	-84.120335	
755	3.7750	507.253820	1374.460510	-113.338954	513.194470	1372.166400	-379.656663	486.290187	1437.405277	-249.414685	463.774209	1282.937018	-254.922023	451.937611	1093.318896	39.653950	667.388331	934.892007	-90.096155	482.521622	1135.152500	-554.785459	675.213814	944.563508	-452.820293	-64.817821	1187.810207	-284.142066	97.804835	1209.861876	-430.153265	77.047710	1202.683190	-110.336734	137.728556	1162.887632	-383.371007	130.483580	1162.899001	-152.321008	-39.944962	1231.663087	-238.694915	-37.089722	1237.100046	-313.463474	36.564328	1137.650919	-100.440210	74.917991	1122.484566	-464.446618	145.739957	1011.827983	-81.059368	215.766270	958.791477	-90.553337	252.014664	881.699369	-96.405949	241.778575	981.608742	-105.287275	333.102833	759.170627	-118.557494	310.783772	732.148336	-229.252992	307.340107	634.134603	-88.953451	314.989017	544.123227	-102.469907	275.613760	467.499715	-106.516050	345.733635	542.417076	-126.614969	259.768636	314.948273	-109.335210	279.071437	322.890683	-195.028408	192.240268	285.463310	-142.724185	491.935613	254.664499	-151.687439	427.271328	233.715333	-92.829728	139.599565	1062.435161	-472.683979	220.141999	1031.687170	-473.910478	239.781769	1057.280526	-457.733961	277.479442	964.663362	-487.175637	376.878490	846.601899	-468.453041	403.551807	817.217000	-360.347032	309.710177	751.168617	-487.933696	261.694770	684.915430	-457.311864	181.924241	645.383831	-451.382495	281.828740	670.310185	-427.709541	69.733900	554.725947	-437.410041	68.967227	559.985491	-348.903096	-8.604210	583.415847	-393.240524	222.664282	384.925992	-404.617723	144.105181	403.393937	-463.874174	-140.511615	920.291085	-291.061118	-3.163179	86.018435	-484.539168	-14.929536	80.428363	-84.119141	
756	3.7800	507.694585	1375.149651	-114.111347	513.484209	1372.956822	-380.697715	486.395793	1438.376987	-250.041768	464.038527	1283.872623	-255.811255	453.153503	1093.464175	38.251754	668.788913	934.612783	-90.968392	482.803121	1135.208203	-555.048667	676.069967	944.960871	-452.517536	-64.336052	1188.027853	-283.330954	97.441184	1211.435494	-429.670859	77.916932	1202.490798	-109.805704	137.839715	1164.705540	-383.243205	131.369803	1162.630668	-152.243495	-40.033546	1231.949371	-237.613078	-37.925961	1237.600031	-311.673764	36.800326	1137.061135	-100.409154	75.662923	1124.883232	-464.400699	143.876999	1009.612218	-80.297318	212.851089	955.223012	-89.407290	247.157324	877.339111	-94.984381	239.470795	977.509771	-104.114822	326.510680	753.264979	-117.568504	304.668506	726.730078	-228.084428	300.968091	627.993931	-88.045585	309.192677	538.165571	-101.844746	270.309471	461.343046	-106.312941	340.371231	536.685596	-126.085185	255.272200	308.649364	-109.662022	274.925342	316.759637	-195.227130	188.119441	279.871422	-143.219011	487.596455	246.552507	-151.839222	422.645529	226.281476	-93.039145	141.079655	1066.254914	-473.229214	221.844523	1036.650528	-474.505855	241.111527	1062.571794	-458.348770	280.234310	970.672296	-488.209838	381.613369	854.328981	-469.950772	408.830203	825.282539	-361.760173	315.176532	758.620123	-488.748791	267.104396	692.631058	-458.163116	187.407542	653.116607	-452.079546	287.245720	678.200154	-428.468409	75.103469	562.492470	-437.717246	74.625155	567.803130	-349.111860	-3.404490	590.949876	-393.154807	227.529701	391.606001	-404.080564	149.050995	410.618526	-463.686090	-140.632577	920.468426	-290.431642	-3.162073	86.024906	-484.542860	-14.926395	80.431126	-84.105730	
